name C:\Users\u0101727\Documents\MyRepositories\paper-ad\predictivesimulations_2d/Results/PredSim_2D/IK_c2.mot
datacolumns 11
datarows 34
range 0.63315202 0.94972803
endheader
time	pelvis_tilt	pelvis_tx	pelvis_ty	hip_flexion_l	hip_flexion_r	knee_angle_l	knee_angle_r	ankle_angle_l	ankle_angle_r	lumbar_extension	
          0.63315202	        -15.11916627	          0.85492162	          0.89980939	         25.75418588	         11.43405529	        -10.65369290	        -40.88616062	          8.50449543	         -0.31857184	         10.38683950	
          0.64274523	        -15.13622620	          0.86689481	          0.90124547	         24.83565886	         12.70653668	        -10.40728034	        -41.78273592	          8.60662653	          0.65811561	         10.34854670	
          0.65233845	        -15.15079376	          0.87881225	          0.90243785	         23.90191660	         14.01148556	        -10.13613174	        -42.57146343	          8.74938202	          1.71476544	         10.30625956	
          0.66193166	        -15.16285860	          0.89068159	          0.90338980	         22.95735164	         15.34386335	         -9.84796195	        -43.24416744	          8.92688067	          2.83370803	         10.26030484	
          0.67152487	        -15.17254743	          0.90251015	          0.90411200	         22.00583736	         16.69766124	         -9.54981064	        -43.79335976	          9.13257782	          3.99712930	         10.21116442	
          0.68111808	        -15.18001999	          0.91430408	          0.90462153	         21.05160309	         18.06709510	         -9.24932439	        -44.21134423	          9.35877811	          5.18718629	         10.15925673	
          0.69071130	        -15.18541944	          0.92606887	          0.90493929	         20.09920474	         19.44670266	         -8.95429700	        -44.49026974	          9.59749292	          6.38606453	         10.10492190	
          0.70030451	        -15.18889391	          0.93781050	          0.90508681	         19.15345069	         20.82994684	         -8.67313303	        -44.62323721	          9.84082270	          7.57597197	         10.04854129	
          0.70989772	        -15.19066943	          0.94953597	          0.90508446	         18.21750253	         22.20995795	         -8.41129360	        -44.60459228	         10.08150631	          8.73924517	          9.99064994	
          0.71949093	        -15.19106641	          0.96125363	          0.90495045	         17.29213986	         23.57982126	         -8.17004388	        -44.43028443	         10.31294025	          9.85852005	          9.93199514	
          0.72908415	        -15.19036631	          0.97297212	          0.90470035	         16.37885089	         24.93168535	         -7.95229733	        -44.09818560	         10.52836320	         10.91706303	          9.87329726	
          0.73867736	        -15.18881574	          0.98469959	          0.90434726	         15.47978815	         26.25759525	         -7.76162749	        -43.60732240	         10.72176587	         11.89942619	          9.81517331	
          0.74827057	        -15.18665815	          0.99644515	          0.90390177	         14.59649661	         27.54866118	         -7.60106186	        -42.96086739	         10.88857100	         12.79219379	          9.75836700	
          0.75786378	        -15.18415342	          1.00821722	          0.90337293	         13.72990623	         28.79689316	         -7.47262419	        -42.16332070	         11.02586880	         13.58512178	          9.70356692	
          0.76745700	        -15.18156592	          1.02002238	          0.90276868	         12.88088227	         29.99609622	         -7.37740968	        -41.21898404	         11.13255381	         14.27211746	          9.65125744	
          0.77705021	        -15.17913503	          1.03186688	          0.90209544	         12.05012020	         31.14060972	         -7.31704953	        -40.13449189	         11.20937881	         14.85157725	          9.60187466	
          0.78664342	        -15.17708273	          1.04375509	          0.90135841	         11.23794271	         32.22747558	         -7.29244639	        -38.91530816	         11.25916987	         15.32632301	          9.55560903	
          0.79623663	        -15.17561967	          1.05569064	          0.90056121	         10.44422894	         33.25530303	         -7.30399796	        -37.56648800	         11.28637975	         15.70262898	          9.51252969	
          0.80582985	        -15.17496486	          1.06767692	          0.89970566	          9.66872830	         34.22347378	         -7.35171753	        -36.09340857	         11.29629383	         15.98885950	          9.47261925	
          0.81542306	        -15.17539822	          1.07971850	          0.89879182	          8.91082968	         35.13050048	         -7.43504511	        -34.50365557	         11.29414725	         16.19415781	          9.43595293	
          0.82501627	        -15.17730815	          1.09182189	          0.89781846	          8.16946168	         35.97294747	         -7.55290549	        -32.80511553	         11.28353812	         16.32764264	          9.40284082	
          0.83460948	        -15.18101403	          1.10399524	          0.89678441	          7.44429344	         36.74624415	         -7.70563155	        -31.00917681	         11.26524602	         16.39809269	          9.37366999	
          0.84420270	        -15.18657982	          1.11625061	          0.89569239	          6.73624304	         37.44370900	         -7.89694686	        -29.14192224	         11.23759742	         16.41365022	          9.34903069	
          0.85379591	        -15.19402755	          1.12860631	          0.89455492	          6.04733075	         38.05245878	         -8.13309227	        -27.23752460	         11.19450105	         16.38160336	          9.33022758	
          0.86338912	        -15.20337264	          1.14108391	          0.89339379	          5.38073271	         38.55674133	         -8.42121906	        -25.32817007	         11.12349514	         16.30834806	          9.31898155	
          0.87298233	        -15.21429473	          1.15370225	          0.89223151	          4.74087252	         38.94709137	         -8.76981711	        -23.44174995	         11.00827591	         16.19927731	          9.31648307	
          0.88257555	        -15.22600012	          1.16647594	          0.89108603	          4.13303063	         39.22328912	         -9.18876216	        -21.60011421	         10.83229365	         16.05852235	          9.32314338	
          0.89216876	        -15.23727981	          1.17941786	          0.88997161	          3.56248052	         39.39220128	         -9.68833804	        -19.82495283	         10.58127390	         15.88869068	          9.33889209	
          0.90176197	        -15.24691640	          1.19254185	          0.88890039	          3.03408219	         39.46106152	        -10.27817889	        -18.13118082	         10.24239672	         15.69098576	          9.36381962	
          0.91135518	        -15.25376862	          1.20586237	          0.88788153	          2.55227859	         39.43667212	        -10.96686657	        -16.53054734	          9.80352997	         15.46531012	          9.39816479	
          0.92094840	        -15.25658315	          1.21939358	          0.88692028	          2.12169161	         39.32661915	        -11.76340895	        -15.04008265	          9.25383803	         15.21038364	          9.44206745	
          0.93054161	        -15.25409641	          1.23314989	          0.88601771	          1.74784463	         39.13595270	        -12.67810546	        -13.67437328	          8.58236143	         14.92419039	          9.49581916	
          0.94013482	        -15.24490309	          1.24714488	          0.88516952	          1.43664825	         38.86946955	        -13.72188874	        -12.45336611	          7.77868337	         14.60384673	          9.55967059	
          0.94972803	        -15.22744774	          1.26139030	          0.88436458	          1.19374872	         38.53250896	        -14.90494577	        -11.40582959	          6.83532124	         14.24554898	          9.63377480	
